<?xml version="1.0" encoding="utf-8"?>
<!-- Generator: Adobe Illustrator 17.0.1, SVG Export Plug-In . SVG Version: 6.00 Build 0)  -->
<!DOCTYPE svg PUBLIC "-//W3C//DTD SVG 1.1//EN" "http://www.w3.org/Graphics/SVG/1.1/DTD/svg11.dtd">
<svg version="1.1" xmlns="http://www.w3.org/2000/svg" xmlns:xlink="http://www.w3.org/1999/xlink" x="0px" y="0px" width="256px"
	 height="256px" viewBox="-436.39 138.08 256 256" enable-background="new -436.39 138.08 256 256" xml:space="preserve">
<g id="Слой_3">
	
		<linearGradient id="SVGID_1_" gradientUnits="userSpaceOnUse" x1="-115.4843" y1="-261.5254" x2="-418.3357" y2="-86.6746" gradientTransform="matrix(1 0 0 -1 -41.48 91.98)">
		<stop  offset="0" style="stop-color:#29ABE2"/>
		<stop  offset="1" style="stop-color:#4F00BC"/>
	</linearGradient>
	<rect x="-436.39" y="138.08" fill="url(#SVGID_1_)" width="256" height="256"/>
</g>
<g id="Слой_1">
	<path fill="#FFFFFF" d="M-389.88,208.56c0-9.731,1.904-16.796,5.716-21.193c3.809-4.397,10.289-6.301,19.435-5.716v7.035
		c-6.45-0.937-10.877,0.412-13.279,4.045c-2.404,3.636-3.605,9.03-3.605,16.181v31.658c0,13.015-3.108,20.929-9.322,23.743
		c6.332,2.463,9.497,10.144,9.497,23.04v35.527c0,7.15,1.143,12.457,3.43,15.917c2.286,3.457,6.711,4.718,13.279,3.781v7.915
		c-9.146,0.585-15.626-1.319-19.435-5.716c-3.812-4.397-5.716-11.462-5.716-21.193v-36.055c0-13.13-4.397-19.698-13.191-19.698
		v-6.859c8.794,0,13.191-6.799,13.191-20.402V208.56L-389.88,208.56z"/>
	<path fill="#FFFFFF" d="M-226.9,208.56v32.01c0,13.603,4.397,20.402,13.191,20.402v6.859c-8.794,0-13.191,6.568-13.191,19.698
		v36.055c0,9.731-1.907,16.796-5.716,21.193c-3.812,4.397-10.288,6.302-19.434,5.716v-7.915c6.565,0.937,10.992-0.324,13.279-3.781
		c2.286-3.46,3.43-8.767,3.43-15.917v-35.527c0-12.897,3.166-20.578,9.498-23.04c-6.216-2.814-9.322-10.728-9.322-23.743v-31.658
		c0-7.151-1.204-12.545-3.606-16.181c-2.405-3.633-6.832-4.982-13.279-4.045v-7.035c9.146-0.585,15.623,1.319,19.434,5.716
		C-228.807,191.764-226.9,198.829-226.9,208.56L-226.9,208.56z"/>
	<path display="none" fill="#FFFFFF" d="M-281.18,228.24c0.118-6.251-2.446-12.262-7.372-17.034
		c-4.984-4.844-11.836-7.856-19.29-8.506c-16.1-1.406-29.696,8.576-30.866,22.054c-0.045,0.556-0.033,1.101-0.033,1.642
		l-9.039-0.284l-16.726,91.938l97.028,11.482l-4.69-101l-9.012-0.294L-281.18,228.24z M-297.316,211.145
		c0.614-1.049,2.244-1.654,3.305-0.874c3.251,2.386,5.885,5.352,7.726,8.93c1.43,2.776-2.752,5.222-4.182,2.446
		c-1.452-2.812-3.414-5.316-5.988-7.194C-297.506,213.673-298.039,212.376-297.316,211.145L-297.316,211.145z M-326.658,225.805
		c0.541-6.248,7.512-11.14,15.864-11.14c0.626,0,1.264,0.036,1.914,0.085c4.687,0.411,8.906,2.232,11.905,5.138
		c2.41,2.338,3.71,5.15,3.72,7.974l-33.415-1.077C-326.682,226.455-326.682,226.135-326.658,225.805L-326.658,225.805z
		 M-335.482,284.147c-1.536,1.134-3.629,1.606-6.275,1.439c-2.703-0.187-4.793-0.931-6.26-2.244
		c-1.476-1.309-2.138-3.024-1.996-5.138l4.098,0.272c0.073,0.931,0.284,1.642,0.65,2.126c0.65,0.886,1.845,1.394,3.568,1.5
		c1.04,0.073,1.89,0.012,2.54-0.166c1.252-0.342,1.926-1.086,1.996-2.232c0.048-0.674-0.224-1.216-0.792-1.618
		c-0.578-0.402-1.512-0.78-2.788-1.146l-2.195-0.626c-2.15-0.626-3.626-1.252-4.406-1.866c-1.325-1.028-1.914-2.54-1.784-4.536
		c0.118-1.82,0.898-3.296,2.337-4.406c1.43-1.122,3.463-1.597,6.084-1.418c2.198,0.142,4.028,0.838,5.495,2.081
		c1.476,1.24,2.171,2.939,2.114,5.101l-4.134-0.272c0.009-1.228-0.487-2.138-1.479-2.716c-0.671-0.39-1.512-0.614-2.528-0.686
		c-1.134-0.069-2.053,0.094-2.764,0.484c-0.708,0.402-1.073,0.995-1.134,1.784c-0.045,0.732,0.248,1.3,0.898,1.703
		c0.414,0.272,1.3,0.614,2.67,1.028l3.544,1.074c1.557,0.472,2.715,1.04,3.459,1.712c1.158,1.04,1.678,2.471,1.56,4.279
		C-333.12,281.513-333.958,283.013-335.482,284.147L-335.482,284.147z M-317.044,286.687l-1.074-4.264l-7.572-0.508l-1.666,4.098
		l-4.488-0.305l8.682-19.859l4.853,0.321l5.918,20.823L-317.044,286.687z M-295.214,288.139l-14.551-0.968l1.346-20.342l4.288,0.272
		l-1.098,16.693l10.251,0.683L-295.214,288.139L-295.214,288.139z M-276.03,272.583l-10.868-0.711l-0.296,4.312l9.982,0.662
		l-0.236,3.532l-9.97-0.65l-0.354,5.222l11.376,0.756l-0.236,3.659l-15.57-1.025l1.346-20.355l15.062,0.992L-276.03,272.583
		L-276.03,272.583z"/>
	<rect x="-364.5" y="202.57" display="none" fill="none" width="114.67" height="127.01"/>
	<path display="none" fill="#FFFFFF" d="M-324.28,278.49l5.256,0.342l-2.056-8.174L-324.28,278.49z"/>
	<path display="none" fill="#FFFFFF" d="M-252.32,307.55l-17.908-78.811l6.048,97.167l11.186-16.027l-8.386-1.572l0.448-2.374
		L-252.32,307.55L-252.32,307.55z"/>
</g>
<g id="Слой_2" display="none">
	<g display="inline">
		<path fill="#FFFFFF" d="M-329.016,263.454h-6.332c-0.999,0-1.81-0.808-1.81-1.809v-9.046c0-1.001,0.811-1.809,1.81-1.809h6.332
			c3.492,0,6.332,2.84,6.332,6.332C-322.684,260.614-325.524,263.454-329.016,263.454L-329.016,263.454z M-333.539,259.835h4.523
			c1.496,0,2.714-1.217,2.714-2.713c0-1.497-1.218-2.714-2.714-2.714h-4.523V259.835z M-333.539,259.835"/>
		<path fill="#FFFFFF" d="M-329.016,272.5h-6.332c-0.999,0-1.81-0.808-1.81-1.809v-9.046c0-1.001,0.811-1.81,1.81-1.81h6.332
			c3.492,0,6.332,2.841,6.332,6.332C-322.684,269.659-325.524,272.5-329.016,272.5L-329.016,272.5z M-333.539,268.882h4.523
			c1.496,0,2.714-1.217,2.714-2.714c0-1.496-1.218-2.714-2.714-2.714h-4.523V268.882z M-333.539,268.882"/>
		<path fill="#FFFFFF" d="M-306.403,272.5h-3.617c-2.992,0-5.427-2.436-5.427-5.43v-14.472c0-1.001,0.811-1.809,1.809-1.809
			c0.999,0,1.81,0.808,1.81,1.809v14.472c0,0.999,0.812,1.811,1.811,1.811h3.617c0.996,0,1.809-0.812,1.809-1.811v-14.472
			c0-1.001,0.811-1.809,1.81-1.809c0.998,0,1.809,0.808,1.809,1.809v14.472C-300.973,270.064-303.408,272.5-306.403,272.5
			L-306.403,272.5z M-306.403,272.5"/>
		<path fill="#FFFFFF" d="M-286.5,272.5c-0.998,0-1.809-0.808-1.809-1.809v-9.046c0-1.001,0.811-1.81,1.809-1.81
			c0.999,0,1.81,0.809,1.81,1.81v9.046C-284.69,271.692-285.501,272.5-286.5,272.5L-286.5,272.5z M-286.5,272.5"/>
		<path fill="#FFFFFF" d="M-286.497,263.454c-0.615,0-1.214-0.312-1.553-0.877l-5.427-9.046c-0.514-0.857-0.238-1.968,0.62-2.482
			c0.855-0.514,1.969-0.237,2.482,0.62l5.428,9.046c0.514,0.858,0.237,1.969-0.621,2.482
			C-285.859,263.371-286.181,263.454-286.497,263.454L-286.497,263.454z M-286.497,263.454"/>
		<path fill="#FFFFFF" d="M-286.501,263.454c-0.317,0-0.639-0.083-0.928-0.258c-0.858-0.513-1.135-1.625-0.621-2.482l5.428-9.046
			c0.513-0.857,1.626-1.134,2.482-0.62c0.858,0.513,1.135,1.625,0.62,2.482l-5.427,9.046
			C-285.287,263.141-285.886,263.454-286.501,263.454L-286.501,263.454z M-286.501,263.454"/>
		<path fill="#FFFFFF" d="M-255.743,308.684h-5.427c-0.999,0-1.81-0.809-1.81-1.81c0-1.001,0.811-1.809,1.81-1.809h5.427
			c0.999,0,1.81,0.808,1.81,1.809C-253.934,307.875-254.745,308.684-255.743,308.684L-255.743,308.684z M-255.743,308.684"/>
		<path fill="#FFFFFF" d="M-268.407,308.684h-19.901c-0.999,0-1.81-0.809-1.81-1.81c0-1.001,0.811-1.809,1.81-1.809h19.901
			c0.999,0,1.809,0.808,1.809,1.809C-266.598,307.875-267.409,308.684-268.407,308.684L-268.407,308.684z M-268.407,308.684"/>
		<path fill="#FFFFFF" d="M-288.309,301.448h-5.428c-0.999,0-1.809-0.809-1.809-1.81c0-1,0.81-1.809,1.809-1.809h5.428
			c0.999,0,1.809,0.808,1.809,1.809C-286.5,300.639-287.31,301.448-288.309,301.448L-288.309,301.448z M-288.309,301.448"/>
		<path fill="#FFFFFF" d="M-261.171,301.448h-19.901c-0.999,0-1.81-0.809-1.81-1.81c0-1,0.811-1.809,1.81-1.809h19.901
			c0.999,0,1.809,0.808,1.809,1.809C-259.362,300.639-260.172,301.448-261.171,301.448L-261.171,301.448z M-261.171,301.448"/>
		<path fill="#FFFFFF" d="M-288.309,315.921h-5.428c-0.999,0-1.809-0.809-1.809-1.81c0-1,0.81-1.809,1.809-1.809h5.428
			c0.999,0,1.809,0.808,1.809,1.809C-286.5,315.112-287.31,315.921-288.309,315.921L-288.309,315.921z M-288.309,315.921"/>
		<path fill="#FFFFFF" d="M-261.171,315.921h-19.901c-0.999,0-1.81-0.809-1.81-1.81c0-1,0.811-1.809,1.81-1.809h19.901
			c0.999,0,1.809,0.808,1.809,1.809C-259.362,315.112-260.172,315.921-261.171,315.921L-261.171,315.921z M-261.171,315.921"/>
		<path fill="#FFFFFF" d="M-355.249,221.842h-5.427c-0.999,0-1.81-0.808-1.81-1.809s0.811-1.81,1.81-1.81h5.427
			c0.999,0,1.81,0.809,1.81,1.81S-354.251,221.842-355.249,221.842L-355.249,221.842z M-355.249,221.842"/>
		<path fill="#FFFFFF" d="M-328.111,221.842h-19.901c-0.999,0-1.809-0.808-1.809-1.809s0.81-1.81,1.809-1.81h19.901
			c0.999,0,1.81,0.809,1.81,1.81S-327.113,221.842-328.111,221.842L-328.111,221.842z M-328.111,221.842"/>
		<path fill="#FFFFFF" d="M-322.684,229.079h-5.428c-0.999,0-1.809-0.808-1.809-1.809s0.81-1.81,1.809-1.81h5.428
			c0.999,0,1.809,0.809,1.809,1.81S-321.685,229.079-322.684,229.079L-322.684,229.079z M-322.684,229.079"/>
		<path fill="#FFFFFF" d="M-335.348,229.079h-19.901c-0.999,0-1.809-0.808-1.809-1.809s0.81-1.81,1.809-1.81h19.901
			c0.999,0,1.81,0.809,1.81,1.81S-334.349,229.079-335.348,229.079L-335.348,229.079z M-335.348,229.079"/>
		<path fill="#FFFFFF" d="M-322.684,214.605h-5.428c-0.999,0-1.809-0.808-1.809-1.809c0-1.001,0.81-1.81,1.809-1.81h5.428
			c0.999,0,1.809,0.808,1.809,1.81C-320.875,213.797-321.685,214.605-322.684,214.605L-322.684,214.605z M-322.684,214.605"/>
		<path fill="#FFFFFF" d="M-335.348,214.605h-19.901c-0.999,0-1.809-0.808-1.809-1.809c0-1.001,0.81-1.81,1.809-1.81h19.901
			c0.999,0,1.81,0.808,1.81,1.81C-333.539,213.797-334.349,214.605-335.348,214.605L-335.348,214.605z M-335.348,214.605"/>
		<path fill="#FFFFFF" d="M-302.782,306.875h-10.856c-0.998,0-1.809-0.808-1.809-1.809v-10.855h-7.237
			c-0.733,0-1.391-0.44-1.672-1.116c-0.28-0.677-0.125-1.455,0.392-1.972l14.474-14.474c0.706-0.707,1.852-0.707,2.557,0
			l14.474,14.474c0.518,0.517,0.672,1.295,0.392,1.972c-0.281,0.677-0.939,1.116-1.672,1.116h-7.237v10.855
			C-300.973,306.066-301.784,306.875-302.782,306.875L-302.782,306.875z M-311.828,303.256h7.237v-10.855
			c0-1.001,0.811-1.81,1.81-1.81h4.678l-10.106-10.106l-10.106,10.106h4.678c0.999,0,1.81,0.809,1.81,1.81V303.256z
			 M-311.828,303.256"/>
		<path fill="#FFFFFF" d="M-264.789,290.592h-32.566c-0.479,0-0.941-0.19-1.279-0.53l-9.576-9.575l-9.576,9.575
			c-0.338,0.34-0.799,0.53-1.279,0.53h-32.566c-0.999,0-1.809-0.808-1.809-1.809c0-3.991-3.246-7.237-7.237-7.237
			c-0.999,0-1.81-0.809-1.81-1.81v-36.184c0-1.001,0.811-1.81,1.81-1.81c3.991,0,7.237-3.246,7.237-7.237
			c0-1.001,0.81-1.81,1.809-1.81h86.842c0.999,0,1.809,0.809,1.809,1.81c0,3.991,3.246,7.237,7.237,7.237
			c0.999,0,1.81,0.809,1.81,1.81v36.184c0,1-0.811,1.81-1.81,1.81c-3.991,0-7.237,3.246-7.237,7.237
			C-262.98,289.783-263.79,290.592-264.789,290.592L-264.789,290.592z M-296.606,286.973h30.158c0.765-4.539,4.356-8.13,8.896-8.896
			v-32.866c-4.539-0.765-8.13-4.357-8.896-8.896h-83.525c-0.765,4.539-4.356,8.131-8.896,8.896v32.866
			c4.539,0.765,8.13,4.356,8.896,8.896h30.158l10.326-10.325c0.706-0.707,1.852-0.707,2.557,0L-296.606,286.973z M-296.606,286.973"
			/>
		<path fill="#FFFFFF" d="M-272.026,283.355h-32.566c-0.479,0-0.941-0.19-1.279-0.53l-2.34-2.339l-2.34,2.339
			c-0.338,0.34-0.799,0.53-1.279,0.53h-32.566c-0.999,0-1.809-0.808-1.809-1.809c0-2.992-2.436-5.428-5.428-5.428
			c-0.999,0-1.809-0.808-1.809-1.809V248.98c0-1,0.81-1.809,1.809-1.809c2.992,0,5.428-2.436,5.428-5.428
			c0-1,0.81-1.809,1.809-1.809h72.369c0.999,0,1.809,0.808,1.809,1.809c0,2.992,2.436,5.428,5.428,5.428
			c0.999,0,1.809,0.808,1.809,1.809v25.329c0,1-0.81,1.809-1.809,1.809c-2.992,0-5.428,2.436-5.428,5.428
			C-270.217,282.547-271.027,283.355-272.026,283.355L-272.026,283.355z M-303.843,279.737h30.189
			c0.721-3.539,3.516-6.334,7.055-7.054v-22.076c-3.539-0.72-6.334-3.515-7.055-7.054h-69.112c-0.721,3.539-3.517,6.334-7.055,7.054
			v22.074c3.539,0.72,6.334,3.515,7.055,7.054h30.189l3.088-3.088c0.706-0.707,1.852-0.707,2.557,0L-303.843,279.737z
			 M-303.843,279.737"/>
	</g>
</g>
<g id="Слой_4">
	<path fill="#FFFFFF" d="M-279.384,273.991c0.558,0,1.117-0.213,1.543-0.639l6.166-6.166c0.852-0.852,0.852-2.234,0-3.086
		c-0.852-0.852-2.234-0.852-3.086,0l-6.166,6.166c-0.852,0.852-0.852,2.234,0,3.086
		C-280.501,273.778-279.942,273.991-279.384,273.991z"/>
	<g>
		<path fill="#FFFFFF" d="M-325.896,283.293h-17.893c-1.976,0-3.583-1.607-3.583-3.583v-43.737c0-1.976,1.607-3.583,3.583-3.583
			h77.682c1.976,0,3.583,1.607,3.583,3.583v43.737c0,1.976-1.607,3.583-3.583,3.583h-5.482c-1.008,0-1.826,0.817-1.826,1.826
			c0,1.008,0.817,1.826,1.826,1.826h5.482c3.989,0,7.234-3.245,7.234-7.234v-43.737c0-3.989-3.245-7.234-7.234-7.234h-77.682
			c-3.989,0-7.235,3.245-7.235,7.234v43.737c0,3.989,3.246,7.234,7.235,7.234h17.894c1.008,0,1.826-0.817,1.826-1.826
			C-324.07,284.11-324.888,283.293-325.896,283.293z"/>
		<path fill="#FFFFFF" d="M-257.918,295.812c-0.046-1.44-0.949-2.693-2.299-3.194v0l-30.196-11.203
			c-2.045-0.758-4.273-0.272-5.815,1.27c-1.542,1.542-2.029,3.77-1.272,5.815l11.174,30.146c0.503,1.357,1.763,2.26,3.21,2.301
			c0.034,0.001,0.067,0.001,0.101,0.001c1.407,0,2.668-0.823,3.233-2.119l3.091-7.096l6.701,6.703
			c1.907,1.908,5.011,1.909,6.919,0.001l2.585-2.584c0.924-0.924,1.433-2.153,1.434-3.46c0-1.307-0.509-2.536-1.432-3.46
			l-6.617-6.618l7.095-3.167C-258.691,298.561-257.871,297.252-257.918,295.812z M-271.012,300.063
			c-0.549,0.245-0.942,0.744-1.051,1.335c-0.109,0.591,0.079,1.198,0.504,1.623l8.492,8.495c0.484,0.484,0.484,1.271,0,1.755
			l-2.585,2.584c-0.234,0.234-0.546,0.363-0.878,0.363h0c-0.332,0-0.643-0.129-0.878-0.364l-8.596-8.598
			c-0.427-0.427-1.037-0.615-1.631-0.503c-0.593,0.112-1.093,0.511-1.334,1.065l-4.039,9.273l-11.068-29.861
			c-0.385-1.039,0.231-1.766,0.429-1.964c0.153-0.152,0.619-0.553,1.3-0.553c0.203,0,0.426,0.036,0.664,0.124l29.914,11.098
			L-271.012,300.063z M-261.486,296.042c0,0-0.001-0.001-0.001-0.001l0.635-1.712L-261.486,296.042z"/>
		<path fill="#FFFFFF" d="M-304.187,272.136c-0.713-0.713-1.869-0.713-2.582,0c-0.713,0.713-0.713,1.869,0,2.582l5.159,5.159
			c0.357,0.356,0.824,0.535,1.291,0.535c0.467,0,0.935-0.178,1.291-0.535c0.713-0.713,0.713-1.869,0-2.582L-304.187,272.136z"/>
		<path fill="#FFFFFF" d="M-302.263,285.134c0-1.008-0.817-1.826-1.826-1.826h-7.296c-1.008,0-1.826,0.817-1.826,1.826
			s0.817,1.826,1.826,1.826h7.296C-303.08,286.96-302.263,286.142-302.263,285.134z"/>
		<path fill="#FFFFFF" d="M-295.438,267.363v7.296c0,1.008,0.817,1.826,1.826,1.826c1.008,0,1.826-0.817,1.826-1.826v-7.296
			c0-1.008-0.817-1.826-1.826-1.826C-294.621,265.537-295.438,266.354-295.438,267.363z"/>
		<path fill="#FFFFFF" d="M-303.727,291.788l-5.159,5.159c-0.713,0.713-0.713,1.869,0,2.582c0.356,0.356,0.824,0.535,1.291,0.535
			c0.467,0,0.935-0.178,1.291-0.535l5.159-5.159c0.713-0.713,0.713-1.869,0-2.582C-301.858,291.075-303.014,291.075-303.727,291.788
			z"/>
		<circle fill="#FFFFFF" cx="-318.653" cy="285.118" r="1.831"/>
		<path fill="#FFFFFF" d="M-330.019,246.804c0-0.815,0.845-1.238,1.721-1.238h5.826c3.139,0,6.068,1.026,6.068,5.313
			c0,2.475-0.966,4.105-2.566,4.8c1.841,0.724,3.109,1.902,3.109,4.921v0.634c0,4.709-2.626,6.4-6.037,6.4h-6.4
			c-1.057,0-1.721-0.574-1.721-1.208V246.804z M-326.124,254.139h3.381c1.63,0,2.415-1.057,2.415-2.596
			c0-1.57-0.906-2.536-2.445-2.536h-3.351V254.139z M-322.713,264.192c1.841,0,2.928-0.996,2.928-3.291v-0.483
			c0-2.355-1.087-3.2-2.928-3.2h-3.411v6.973H-322.713L-322.713,264.192z"/>
		<path fill="#FFFFFF" d="M-302.578,246.773c0-0.845,0.966-1.207,1.962-1.207c0.966,0,1.962,0.362,1.962,1.207v14.128
			c0,5.041-3.2,6.913-7.245,6.913c-4.075,0-7.245-1.872-7.245-6.913v-14.128c0-0.845,0.966-1.207,1.962-1.207
			c0.966,0,1.962,0.362,1.962,1.207v14.128c0,2.355,1.238,3.472,3.321,3.472c2.083,0,3.321-1.117,3.321-3.472V246.773z"/>
		<path fill="#FFFFFF" d="M-290.232,258.788c0-0.151-0.03-0.302-0.091-0.392l-6.249-10.807c-0.06-0.151-0.091-0.302-0.091-0.392
			c0-0.966,1.54-1.63,2.596-1.63c0.634,0,0.936,0.242,1.207,0.785l4.588,8.724l4.619-8.724c0.272-0.513,0.543-0.785,1.177-0.785
			c1.057,0,2.596,0.664,2.596,1.63c0,0.091,0,0.242-0.091,0.392l-6.219,10.807c-0.06,0.091-0.121,0.241-0.121,0.392v7.607
			c0,0.815-0.966,1.238-1.962,1.238c-0.966,0-1.962-0.423-1.962-1.238V258.788L-290.232,258.788z"/>
	</g>
</g>
</svg>
